<svg width="1698" height="421" viewBox="0 0 1698 421" fill="none" xmlns="http://www.w3.org/2000/svg">
<path d="M650.823 118.285C643.625 133.747 626.142 144.313 608.146 144.313C579.866 144.313 557.242 120.089 557.242 90.1958C557.242 60.5601 579.866 36.0783 608.146 36.0783C625.885 36.0783 643.367 45.871 650.566 61.5908H693.5C681.674 25.7702 647.995 0 608.146 0C558.527 0 518.164 40.4593 518.164 90.1958C518.164 139.932 558.527 180.392 608.146 180.392C647.995 180.392 681.931 154.364 693.757 118.285H650.823Z" fill="white"/>
<path d="M891.76 89.9381C891.76 116.997 867.336 141.736 840.341 141.736C813.347 141.736 788.923 116.997 788.923 89.9381C788.923 62.8794 813.347 38.3977 840.341 38.3977C867.336 38.3977 891.76 62.8794 891.76 89.9381ZM930.323 90.1958C930.323 41.7478 888.675 0 840.341 0C792.008 0 750.36 41.7478 750.36 90.1958C750.36 138.644 792.008 180.392 840.341 180.392C888.675 180.392 930.323 138.644 930.323 90.1958Z" fill="white"/>
<path d="M1033.81 142.252V38.3977H1045.38C1075.2 38.3977 1095.26 61.0755 1095.26 90.1958C1095.26 119.316 1074.95 142.252 1045.38 142.252H1033.81ZM995.761 2.57704V177.815H1047.69C1097.31 177.815 1134.59 139.675 1134.59 90.1958C1134.59 40.717 1097.05 2.57704 1047.69 2.57704H995.761Z" fill="white"/>
<path d="M1238.65 177.815V2.57704H1200.09V177.815H1238.65Z" fill="white"/>
<path d="M1447.8 177.815V2.57704H1409.24V111.843L1349.08 2.57704H1310.52V177.815H1349.08V68.5488L1409.24 177.815H1447.8Z" fill="white"/>
<path d="M1607.28 36.0783C1624.24 36.0783 1641.73 43.0363 1650.21 61.5908H1692.63C1680.55 25.2548 1645.84 0 1607.28 0C1557.91 0 1517.29 40.717 1517.29 90.1958C1517.29 139.675 1557.91 180.392 1607.28 180.392C1657.15 180.392 1697 139.932 1697 90.1958V84.2687H1610.88V113.389H1655.35C1645.84 139.932 1624.24 145.344 1607.28 145.344C1579.51 145.344 1556.37 120.347 1556.37 90.7112C1556.37 61.0755 1579.51 36.0783 1607.28 36.0783Z" fill="white"/>
<path d="M595.432 387.933C575.984 387.933 559.164 378.396 558.113 357.517H518.166C518.429 400.305 554.434 419.379 593.855 419.379C630.385 419.379 667.967 404.171 667.967 362.93C667.967 296.171 564.683 318.596 564.683 287.407C564.683 274.262 580.189 269.107 591.227 269.107C610.937 269.107 621.713 275.035 623.815 293.336H661.922C660.608 253.383 627.494 237.402 590.701 237.402C558.113 237.402 523.948 254.414 523.948 290.5C523.948 355.197 627.232 333.288 627.232 367.312C627.232 383.035 607.784 387.933 595.432 387.933Z" fill="#ED155A"/>
<path d="M813.532 239.98V309.832H754.663V239.98H715.242V415.255H754.663V344.887H813.532V415.255H855.581V239.98H813.532Z" fill="#ED155A"/>
<path d="M1015.18 239.98V341.279C1015.18 365.508 1007.83 379.169 980.756 379.169C953.95 379.169 946.328 365.508 946.328 341.279V239.98H906.907V346.949C906.907 393.603 934.239 417.833 980.756 417.833C1027.27 417.833 1054.61 393.603 1054.61 346.949V239.98H1015.18Z" fill="#ED155A"/>
<path d="M1181.89 275.035H1232.88V239.98H1091.49V275.035H1142.47V415.255H1181.89V275.035Z" fill="#ED155A"/>
<path d="M1349.53 275.035H1400.51V239.98H1259.12V275.035H1310.11V415.255H1349.53V275.035Z" fill="#ED155A"/>
<path d="M1441.21 415.255H1544.76V380.2H1480.63V239.98H1441.21V415.255Z" fill="#ED155A"/>
<path d="M1696.99 380.2H1632.86V344.887H1694.36V309.832H1632.86V275.035H1696.99V239.98H1593.44V415.255H1696.99V380.2Z" fill="#ED155A"/>
<path d="M138.584 0.748487C139.485 -0.145332 140.936 -0.145327 141.837 0.748491L279.173 136.982C280.642 138.438 279.613 140.947 277.547 140.947H2.87368C0.807724 140.947 -0.22133 138.438 1.24713 136.982L138.584 0.748487Z" fill="#A60A39"/>
<path d="M418.691 279.011C419.582 279.915 419.582 281.369 418.691 282.272L282.78 419.935C281.327 421.407 278.824 420.376 278.824 418.305L278.824 142.979C278.824 140.908 281.327 139.876 282.781 141.348L418.691 279.011Z" fill="#A60A39"/>
<path d="M138.941 0.00020242C141.749 -0.00162372 141.76 0.00950694 145.223 0.00950694H413.229C416.691 0.00950694 419.498 2.82298 419.498 6.29356V275.202C419.498 278.672 416.691 281.486 413.229 281.486H145.223C141.76 281.486 138.941 278.67 138.941 275.199V0.00020242Z" fill="#ED155A"/>
<mask id="mask0_17_251" style="mask-type:alpha" maskUnits="userSpaceOnUse" x="138" y="0" width="282" height="282">
<path d="M419.5 275.196C419.5 278.666 419.5 278.001 419.5 281.48L145.225 281.48C141.762 281.48 138.955 278.666 138.955 275.196L138.955 6.28783C138.955 2.81725 141.762 0.00377538 145.225 0.00377507L413.231 0.00375157C416.693 0.00375126 419.5 2.81723 419.5 6.28781L419.5 275.196Z" fill="#ED155A"/>
</mask>
<g mask="url(#mask0_17_251)">
<path d="M628.067 80.5661C630.514 83.0214 630.514 87.0021 628.067 89.4573L176.317 542.708C173.87 545.163 169.903 545.163 167.456 542.708L27.4598 402.247C25.0127 399.792 25.0126 395.811 27.4597 393.356L479.21 -59.8948C481.657 -62.3501 485.624 -62.35 488.071 -59.8948L628.067 80.5661Z" fill="#D0124F"/>
</g>
<path d="M363.914 105.683C363.914 133.031 341.796 155.201 314.512 155.201C287.229 155.201 265.111 133.031 265.111 105.683C265.111 78.3343 287.229 56.1641 314.512 56.1641C341.796 56.1641 363.914 78.3343 363.914 105.683Z" fill="white"/>
<path d="M55.5589 335.401L0.256525 389.278C0.0925123 389.438 0 389.657 0 389.886V419.606C0 420.075 0.379837 420.455 0.848388 420.455H28.5036C28.7227 420.455 28.9334 420.37 29.0914 420.218L85.5767 365.909C85.9175 365.582 85.925 365.038 85.5933 364.702L56.7551 335.413C56.4277 335.081 55.8932 335.075 55.5589 335.401Z" fill="#A60A39"/>
<path d="M52.7167 196.902L0.679931 247.925C0.528548 248.073 0.443359 248.275 0.443359 248.486V302.749C0.443359 303.449 1.29316 303.803 1.79762 303.313L82.4318 225.062C82.1449 224.766 82.1866 224.808 81.871 224.497L53.3893 196.254C52.9921 196.626 53.0276 196.597 52.7167 196.902Z" fill="#A60A39"/>
<path d="M195.446 338.41L113.1 418.68C112.59 419.177 112.938 420.049 113.647 420.049H170.547C170.754 420.049 170.954 419.966 171.101 419.818L223.817 367.089C223.535 366.798 223.57 366.833 223.261 366.521L196.002 338.969C195.698 338.662 195.714 338.671 195.446 338.41Z" fill="#A60A39"/>
</svg>
